<?xml version="1.0" encoding="UTF-8"?>
<svg xmlns="http://www.w3.org/2000/svg" xmlns:xlink="http://www.w3.org/1999/xlink" width="854" height="480" viewBox="0 0 854 480">
<defs>
<g>
<g id="glyph-0-0">
<path d="M 0 0 L 0 -0.28125 L 0.125 -0.28125 C 0.25 -0.28125 0.34375 -0.3125 0.40625 -0.375 C 0.476562 -0.445312 0.554688 -0.585938 0.640625 -0.796875 L 2.109375 -4.765625 L 2.640625 -4.765625 L 4.140625 -0.640625 C 4.191406 -0.492188 4.25 -0.394531 4.3125 -0.34375 C 4.382812 -0.300781 4.484375 -0.28125 4.609375 -0.28125 L 4.703125 -0.28125 L 4.703125 0 L 2.875 0 L 2.875 -0.28125 L 3.015625 -0.28125 C 3.285156 -0.28125 3.421875 -0.382812 3.421875 -0.59375 C 3.421875 -0.632812 3.414062 -0.675781 3.40625 -0.71875 C 3.394531 -0.757812 3.382812 -0.800781 3.375 -0.84375 L 3.109375 -1.59375 L 1.34375 -1.59375 L 1.09375 -0.890625 C 1.050781 -0.785156 1.03125 -0.691406 1.03125 -0.609375 C 1.03125 -0.390625 1.175781 -0.28125 1.46875 -0.28125 L 1.625 -0.28125 L 1.625 0 Z M 1.46875 -1.921875 L 2.984375 -1.921875 L 2.5625 -3.09375 C 2.5 -3.289062 2.4375 -3.472656 2.375 -3.640625 C 2.3125 -3.816406 2.265625 -3.988281 2.234375 -4.15625 C 2.203125 -3.988281 2.160156 -3.832031 2.109375 -3.6875 C 2.066406 -3.539062 2.003906 -3.363281 1.921875 -3.15625 Z "/>
</g>
<g id="glyph-0-1">
<path d="M 0.25 0 L 0.25 -0.28125 L 0.34375 -0.28125 C 0.488281 -0.28125 0.613281 -0.304688 0.71875 -0.359375 C 0.832031 -0.421875 0.890625 -0.554688 0.890625 -0.765625 L 0.890625 -4 C 0.890625 -4.207031 0.832031 -4.335938 0.71875 -4.390625 C 0.613281 -4.453125 0.488281 -4.484375 0.34375 -4.484375 L 0.25 -4.484375 L 0.25 -4.765625 L 2.1875 -4.765625 L 2.1875 -4.484375 L 2.109375 -4.484375 C 1.960938 -4.484375 1.832031 -4.457031 1.71875 -4.40625 C 1.613281 -4.351562 1.5625 -4.226562 1.5625 -4.03125 L 1.5625 -0.328125 L 2.875 -0.328125 C 3.007812 -0.328125 3.117188 -0.359375 3.203125 -0.421875 C 3.285156 -0.484375 3.34375 -0.5625 3.375 -0.65625 C 3.414062 -0.75 3.445312 -0.84375 3.46875 -0.9375 L 3.53125 -1.4375 L 3.875 -1.4375 L 3.828125 0 Z "/>
</g>
<g id="glyph-0-2">
<path d="M 2.421875 0.0625 C 1.890625 0.0625 1.472656 -0.0507812 1.171875 -0.28125 C 0.878906 -0.507812 0.734375 -0.894531 0.734375 -1.4375 L 0.734375 -4.03125 C 0.734375 -4.226562 0.675781 -4.351562 0.5625 -4.40625 C 0.457031 -4.457031 0.332031 -4.484375 0.1875 -4.484375 L 0.09375 -4.484375 L 0.09375 -4.765625 L 2.046875 -4.765625 L 2.046875 -4.484375 L 1.953125 -4.484375 C 1.804688 -4.484375 1.675781 -4.453125 1.5625 -4.390625 C 1.457031 -4.335938 1.40625 -4.207031 1.40625 -4 L 1.40625 -1.40625 C 1.40625 -1.019531 1.507812 -0.742188 1.71875 -0.578125 C 1.925781 -0.410156 2.191406 -0.328125 2.515625 -0.328125 C 2.898438 -0.328125 3.179688 -0.425781 3.359375 -0.625 C 3.546875 -0.820312 3.640625 -1.070312 3.640625 -1.375 L 3.640625 -4.03125 C 3.640625 -4.226562 3.582031 -4.351562 3.46875 -4.40625 C 3.363281 -4.457031 3.238281 -4.484375 3.09375 -4.484375 L 3.015625 -4.484375 L 3.015625 -4.765625 L 4.6875 -4.765625 L 4.6875 -4.484375 L 4.59375 -4.484375 C 4.445312 -4.484375 4.316406 -4.453125 4.203125 -4.390625 C 4.097656 -4.335938 4.046875 -4.207031 4.046875 -4 L 4.046875 -1.359375 C 4.046875 -0.910156 3.90625 -0.5625 3.625 -0.3125 C 3.34375 -0.0625 2.941406 0.0625 2.421875 0.0625 Z "/>
</g>
</g>
</defs>
<g fill="rgb(100%, 100%, 100%)" fill-opacity="1">
<use xlink:href="#glyph-0-0" x="30" y="27.126953"/>
<use xlink:href="#glyph-0-1" x="35" y="27.126953"/>
<use xlink:href="#glyph-0-2" x="39" y="27.126953"/>
</g>
</svg>
